PathFileType	4	(X/Y/Z)	C:/Users/beibeiliu/ov580/test_trc/User1\sequence.21_training_dense_right.trc
DataRate	CameraRate	NumFrames	NumMarkers	Units	OrigDataRate	OrigDataStartFrame	OrigNumFrames
120	120	8	19	mm	120	71	280
Frame#	Time	ThumbCMC			ThumbMCP			ThumbIP			ThumbTip			IndexMCP			IndexPIP			IndexTip			MiddleMCP			MiddlePIP			MiddleTip			RingMCP			RingPIP			RingTip			PinkyMCP			PinkyPIP			PinkyTip			BackHand1			BackHand2			BackHand3	
		X0	Y0	Z0	X1	Y1	Z1	X2	Y2	Z2	X3	Y3	Z3	X4	Y4	Z4	X5	Y5	Z5	X6	Y6	Z6	X7	Y7	Z7	X8	Y8	Z8	X9	Y9	Z9	X10	Y10	Z10	X11	Y11	Z11	X12	Y12	Z12	X13	Y13	Z13	X14	Y14	Z14	X15	Y15	Z15	X16	Y16	Z16	X17	Y17	Z17	X18	Y18	Z18	
70	0.583333	196.003	69.1048	62.2312	179.327	75.7934	24.7588	168.655	56.1583	-0.137156	157.759	26.605	4.05308	221.415	46.3807	-19.4784	222.459	44.911	-42.3202	221.73	39.2427	-70.4256	217.515	20.3362	-21.8988	220.659	23.6411	-47.1073	218.911	14.4735	-76.744	205.695	7.98185	-13.8058	210.792	5.97307	-39.4284	212.744	4.41875	-65.9591	190.062	-4.32519	1.17812	193.068	-9.32281	-19.5842	202.95	-8.61105	-37.6448	203.502	5.27609	38.3119	205.303	6.09881	71.5541	222.396	35.473	55.3168	
71	0.591667	204.117	65.9431	62.0049	187.869	78.7943	25.2331	174.85	54.781	4.09153	158.29	27.9986	5.36586	226.405	40.5811	-15.4861	223.232	34.7234	-42.3344	222.181	33.0174	-65.2223	218.81	17.8287	-23.9161	219.683	16.5183	-46.69	219.016	11.5666	-80.2988	202.599	3.25828	-14.8383	203.561	-1.61808	-39.0398	208.388	-2.08228	-67.6562	182.378	-6.60686	4.7132	188.381	-8.79996	-14.6053	195.76	-12.4476	-35.6947	201.997	0.0347869	43.4279	202.073	2.60246	78.5401	221.257	30.3288	60.1711	
72	0.6	210.001	58.5547	68.599	196.858	70.8373	27.5722	180.579	52.4893	6.87091	160.625	30.5926	9.01952	226.579	28.405	-9.24609	224.667	24.4144	-40.0792	219.003	21.0792	-64.9158	214.543	8.02044	-19.5402	213.401	5.0259	-46.0947	213.138	4.16294	-74.1015	197.907	-2.68523	-9.62537	200.835	-4.32312	-38.612	198.276	-9.52957	-63.9117	177.313	-7.52488	8.51655	180.764	-11.3102	-16.136	187.294	-20.5242	-37.2079	197.373	-5.52538	46.4345	196.926	-6.34592	76.4586	223.953	20.8011	58.681	
73	0.608333	213.495	45.4154	69.1105	202.591	64.1686	31.6309	183.093	46.862	11.9992	161.212	28.2889	10.6525	226.14	15.0244	-7.12209	225.955	14.1226	-34.3067	218.491	9.96177	-58.2381	210.725	-3.39055	-15.1611	208.366	-4.50635	-39.6335	206.486	-6.6483	-70.6571	191.805	-10.9507	-5.78104	190.838	-16.5171	-34.9627	190.534	-16.9808	-60.0036	168.4	-14.1472	10.4535	168.782	-19.1593	-11.4313	178.011	-27.2303	-33.9663	191.48	-12.3383	47.728	190.646	-13.7171	83.3047	219.491	7.59282	65.9486	
74	0.616667	212.156	43.3315	71.7762	202.419	57.5505	33.8469	184.177	45.4695	13.9341	161.218	27.0017	13.4397	224.373	12.4827	-5.75014	222.951	9.05417	-33.9703	213.163	4.51609	-56.7414	208.035	-5.69527	-14.2717	204.529	-8.88132	-41.0985	201.694	-11.9177	-67.7948	188.416	-14.062	-4.03632	187.567	-17.7346	-36.0615	187.319	-18.8466	-55.5283	166.249	-15.6871	11.8793	167.567	-19.9767	-11.7031	176.078	-25.719	-32.5967	187.286	-16.8636	48.3719	188.354	-15.8671	85.6007	218.629	2.80446	63.568	
75	0.625	213.731	43.6133	71.202	203.656	60.609	34.828	185.186	48.1845	12.4837	158.799	25.5432	9.06338	224.318	12.4538	-7.8414	221.915	9.52142	-33.143	217.36	6.02112	-57.9117	209.793	-4.49687	-11.059	207.721	-7.09818	-41.7733	202.51	-11.4512	-72.4893	187.773	-14.2295	-8.97025	189.736	-15.6157	-30.4008	187.417	-18.1457	-56.8051	166.345	-15.4754	13.1561	166.303	-19.2724	-6.22153	173.932	-26.9506	-30.7631	187.526	-17.0979	49.074	188.062	-15.5815	84.7226	221.169	2.67597	64.2332	
76	0.633333	214.044	43.8298	72.5693	203.868	57.7279	31.5611	184.693	45.9607	12.0943	158.331	27.9708	7.61864	223.289	11.114	-4.05787	224.844	10.8583	-31.9267	215.019	3.71562	-60.6065	209.908	-5.11225	-13.3646	206.522	-8.24815	-41.2679	203.863	-9.34086	-69.2242	189.83	-12.1463	-5.60359	189.548	-16.8244	-34.7298	188.168	-17.8856	-57.1807	168.285	-13.8341	12.2363	168.414	-18.2076	-6.94763	177.678	-25.1616	-31.5727	188.988	-13.962	53.2094	188.214	-19.1025	81.8374	218.594	2.50551	68.7525	
77	0.641667	215.604	44.6978	71.3103	202.94	58.6882	35.3111	185.912	46.8514	11.8246	159.12	27.9719	8.89726	227.754	13.2393	-9.63295	223.277	10.9964	-33.6062	214.941	3.94443	-58.3282	208.743	-5.48383	-14.5151	209.332	-5.54445	-40.32	202.01	-11.4567	-69.9389	187.598	-14.9917	-10.5874	191.499	-14.1587	-32.3496	190.828	-16.441	-55.907	165.13	-16.0276	10.9623	166.813	-19.5891	-10.1892	174.223	-26.3339	-34.1396	189.105	-13.933	49.3085	186.987	-17.1083	80.8608	216.695	1.8919	65.3075	
